<?xml version="1.0" encoding="UTF-8" standalone="no"?>
<svg
   xmlns:dc="http://purl.org/dc/elements/1.1/"
   xmlns:cc="http://creativecommons.org/ns#"
   xmlns:rdf="http://www.w3.org/1999/02/22-rdf-syntax-ns#"
   xmlns:svg="http://www.w3.org/2000/svg"
   xmlns="http://www.w3.org/2000/svg"
   xmlns:sodipodi="http://sodipodi.sourceforge.net/DTD/sodipodi-0.dtd"
   xmlns:inkscape="http://www.inkscape.org/namespaces/inkscape"
   inkscape:version="1.0 (4035a4fb49, 2020-05-01)"
   height="376"
   width="376"
   sodipodi:docname="logo-tarks.svg"
   xml:space="preserve"
   enable-background="new 0 0 1366 768"
   viewBox="0 0 376 376"
   y="0px"
   x="0px"
   id="Capa_1"
   version="1.1"><metadata
   id="metadata167"><rdf:RDF><cc:Work
       rdf:about=""><dc:format>image/svg+xml</dc:format><dc:type
         rdf:resource="http://purl.org/dc/dcmitype/StillImage" /><dc:title></dc:title></cc:Work></rdf:RDF></metadata><defs
   id="defs165" /><sodipodi:namedview
   inkscape:current-layer="Capa_1"
   inkscape:window-maximized="1"
   inkscape:window-y="0"
   inkscape:window-x="0"
   inkscape:cy="186.51581"
   inkscape:cx="200.66338"
   inkscape:zoom="2.3712582"
   showgrid="false"
   id="namedview163"
   inkscape:window-height="1080"
   inkscape:window-width="1920"
   inkscape:pageshadow="2"
   inkscape:pageopacity="0"
   guidetolerance="10"
   gridtolerance="10"
   objecttolerance="10"
   borderopacity="1"
   bordercolor="#666666"
   pagecolor="#ffffff" />















<g
   transform="translate(-495.10999,-196.51001)"
   id="g1072"><circle
     fill="#007b39"
     cx="683.10999"
     cy="384.51001"
     r="187.50999"
     id="circle2" /><g
     id="g20">
	<path
   fill="#f5b700"
   d="m 646.9,510.66 7.74,-31.15 -59.96,-55.25 c 1.64,3.01 3.37,5.95 5.24,8.75 l -0.09,-0.03 47.07,77.68 11.52,0.46 z"
   id="path4" />
	<path
   fill="#009638"
   d="m 682.83,420.22 112.86,-11.15 c 6.04,-16.67 8.09,-34.78 5.59,-52.81 l -103.52,8.37 z"
   id="path6" />
	<path
   fill="#f5b700"
   d="m 698.61,302.58 v 0 l 0.44,-1.77 c 0,0 0.01,0 0.01,0 l 9.81,-38.63 c -20.74,-3.27 -42.64,-0.7 -63.16,8.7 -9.83,4.5 -18.66,10.28 -26.44,17.03 l 68.31,59.06 z"
   id="path8" />
	<path
   fill="#009638"
   d="m 701.33,351.36 96.93,-9.67 c -1.54,-5.5 -3.52,-10.96 -5.98,-16.32 -13.61,-29.73 -38.76,-50.52 -67.69,-59.53 l -11.88,43.15 z"
   id="path10" />
	<path
   fill="#f5b700"
   d="m 684.03,361.24 -75.61,-62.51 c -11.08,12.72 -19.05,27.73 -23.41,43.81 l 85.33,73.77 z"
   id="path12" />
	<path
   fill="#f5b700"
   d="m 666.9,430.19 -85.07,-70.8 c -1.59,14.38 -0.35,29.2 3.98,43.65 l 72.25,62.73 z"
   id="path14" />
	<path
   fill="#009638"
   d="m 658.42,511.11 v 0 l 78.27,-38.67 -0.04,-0.01 c 0.38,-0.17 0.76,-0.31 1.13,-0.49 0.88,-0.4 1.73,-0.84 2.59,-1.27 l -73.6,9.31 z"
   id="path16" />
	<path
   fill="#009638"
   d="m 670.2,467.27 88.38,-7.77 c 12.53,-9.49 22.66,-21.37 30,-34.69 l -109.29,8.62 z"
   id="path18" />
</g><polygon
     fill="#6ab036"
     points="698.61,302.58 699.06,300.81 699.05,300.81 "
     id="polygon22" /><polygon
     fill="#6ab036"
     points="656.64,481.27 656.56,481.28 656.62,481.34 "
     id="polygon24" /><polygon
     fill="#6ab036"
     points="656.56,481.28 656.24,480.99 656.11,481.34 "
     id="polygon26" /><polygon
     fill="#006d33"
     points="656.56,481.28 656.64,481.27 657.72,477.08 656.24,480.99 "
     id="polygon28" /><path
     fill="#006d33"
     d="m 690.26,365.24 1.34,-0.11 c 0.88,-2.95 1.61,-5.94 2.08,-8.96 z"
     id="path30" /><g
     id="g80">
	<g
   id="g78">
		<path
   fill="#f7bd00"
   d="m 763.96,263.15 c 3.67,2.56 9.18,6.6 14.6,11.27 2.13,1.84 5.34,1.65 7.22,-0.45 l 0.8,-0.9 c 1.65,-1.85 1.48,-4.69 -0.39,-6.31 -3.8,-3.3 -10.19,-8.67 -15.91,-12.6 -2.48,-1.71 -5.87,-1.05 -7.55,1.46 l -0.13,0.19 c -1.62,2.42 -1.02,5.67 1.36,7.34 z"
   id="path32" />
		<path
   fill="#f7bd00"
   d="m 733.09,249.09 c 4.26,1.35 10.73,3.55 17.3,6.4 2.59,1.12 5.59,-0.02 6.76,-2.58 l 0.5,-1.1 c 1.02,-2.25 0.01,-4.91 -2.26,-5.9 -4.61,-2.01 -12.31,-5.23 -18.95,-7.27 -2.88,-0.89 -5.92,0.76 -6.77,3.65 l -0.07,0.22 c -0.83,2.77 0.71,5.7 3.49,6.58 z"
   id="path34" />
		<path
   fill="#f7bd00"
   d="m 697.68,241.31 c 4.47,0.21 11.28,0.69 18.36,1.75 2.79,0.42 5.4,-1.45 5.87,-4.23 l 0.2,-1.19 c 0.41,-2.44 -1.25,-4.75 -3.7,-5.13 -4.97,-0.76 -13.24,-1.9 -20.18,-2.17 -3.01,-0.12 -5.53,2.25 -5.61,5.26 l -0.01,0.23 c -0.08,2.91 2.16,5.35 5.07,5.48 z"
   id="path36" />
		<path
   fill="#f7bd00"
   d="m 789.02,287.06 c 2.8,3.49 6.96,8.9 10.85,14.91 1.53,2.36 4.66,3.08 7.06,1.59 l 1.02,-0.64 c 2.1,-1.31 2.73,-4.08 1.39,-6.17 -2.72,-4.23 -7.35,-11.18 -11.74,-16.55 -1.9,-2.33 -5.35,-2.65 -7.66,-0.72 l -0.18,0.15 c -2.23,1.87 -2.56,5.16 -0.74,7.43 z"
   id="path38" />
		<path
   fill="#f7bd00"
   d="m 810.26,318.39 c 1.73,4.12 4.24,10.48 6.32,17.32 0.82,2.7 3.63,4.25 6.34,3.48 l 1.16,-0.33 c 2.38,-0.68 3.75,-3.17 3.04,-5.54 -1.45,-4.82 -3.99,-12.77 -6.73,-19.15 -1.19,-2.77 -4.41,-4.02 -7.16,-2.8 l -0.21,0.09 c -2.65,1.17 -3.88,4.25 -2.76,6.93 z"
   id="path40" />
		<path
   fill="#f7bd00"
   d="m 819.76,355.36 c 0.51,4.44 1.13,11.25 1.22,18.4 0.03,2.82 2.3,5.1 5.11,5.11 l 1.2,0.01 c 2.48,0.01 4.49,-1.99 4.47,-4.47 -0.04,-5.03 -0.25,-13.38 -1.09,-20.27 -0.36,-2.99 -3.11,-5.09 -6.09,-4.7 l -0.23,0.03 c -2.88,0.4 -4.92,3 -4.59,5.89 z"
   id="path42" />
		<path
   fill="#f7bd00"
   d="m 821.32,392.03 c -0.76,4.41 -2.08,11.11 -4.01,18 -0.76,2.71 0.77,5.54 3.47,6.35 l 1.15,0.35 c 2.37,0.71 4.87,-0.65 5.55,-3.03 1.37,-4.84 3.52,-12.91 4.66,-19.75 0.49,-2.97 -1.55,-5.76 -4.52,-6.22 l -0.23,-0.03 c -2.88,-0.46 -5.57,1.46 -6.07,4.33 z"
   id="path44" />
		<path
   fill="#f7bd00"
   d="m 810.31,424.86 c -1.97,4.02 -5.11,10.08 -8.89,16.16 -1.49,2.39 -0.81,5.53 1.55,7.06 l 1.01,0.65 c 2.08,1.35 4.86,0.74 6.17,-1.36 2.67,-4.26 7,-11.4 10.01,-17.66 1.31,-2.72 0.13,-5.96 -2.6,-7.24 l -0.21,-0.1 c -2.64,-1.21 -5.76,-0.12 -7.04,2.49 z"
   id="path46" />
		<path
   fill="#f7bd00"
   d="m 790.96,457.39 c -3,3.32 -7.69,8.28 -13,13.08 -2.09,1.89 -2.31,5.09 -0.45,7.22 l 0.79,0.91 c 1.63,1.87 4.47,2.05 6.31,0.4 3.74,-3.36 9.87,-9.03 14.48,-14.22 2,-2.25 1.77,-5.7 -0.5,-7.67 l -0.17,-0.15 c -2.21,-1.91 -5.51,-1.72 -7.46,0.43 z"
   id="path48" />
		<path
   fill="#f7bd00"
   d="m 761.51,481.69 c -3.81,2.35 -9.7,5.8 -16.15,8.91 -2.54,1.23 -3.64,4.24 -2.46,6.8 l 0.51,1.09 c 1.04,2.25 3.71,3.22 5.94,2.15 4.54,-2.17 12,-5.9 17.89,-9.59 2.55,-1.6 3.3,-4.97 1.67,-7.51 l -0.12,-0.19 c -1.58,-2.45 -4.81,-3.19 -7.28,-1.66 z"
   id="path50" />
		<path
   fill="#f7bd00"
   d="m 727.28,499.26 c -3.81,2.35 -9.7,5.8 -16.15,8.91 -2.54,1.23 -3.64,4.24 -2.46,6.8 l 0.51,1.09 c 1.04,2.25 3.71,3.22 5.94,2.15 4.54,-2.17 12,-5.9 17.89,-9.59 2.55,-1.6 3.3,-4.97 1.67,-7.51 l -0.12,-0.19 c -1.58,-2.44 -4.8,-3.18 -7.28,-1.66 z"
   id="path52" />
		<path
   fill="#f7bd00"
   d="m 689.6,517.3 c -3.81,2.35 -9.7,5.8 -16.15,8.91 -2.54,1.23 -3.64,4.24 -2.46,6.8 l 0.51,1.09 c 1.04,2.25 3.71,3.22 5.94,2.15 4.54,-2.17 12,-5.9 17.89,-9.59 2.55,-1.6 3.3,-4.97 1.67,-7.51 l -0.12,-0.19 c -1.57,-2.44 -4.8,-3.18 -7.28,-1.66 z"
   id="path54" />
		<path
   fill="#f7bd00"
   d="m 653.75,534.22 c -3.94,2.11 -10.03,5.21 -16.65,7.94 -2.61,1.07 -3.89,4.02 -2.86,6.64 l 0.44,1.12 c 0.9,2.3 3.51,3.43 5.81,2.5 4.66,-1.9 12.33,-5.18 18.43,-8.51 2.64,-1.44 3.58,-4.77 2.11,-7.4 l -0.11,-0.2 c -1.43,-2.53 -4.6,-3.46 -7.17,-2.09 z"
   id="path56" />
		<path
   fill="#f7bd00"
   d="m 683.74,241.13 c -4.46,0.29 -11.27,0.9 -18.32,2.09 -2.78,0.47 -5.43,-1.35 -5.95,-4.12 l -0.22,-1.18 c -0.46,-2.43 1.16,-4.77 3.6,-5.2 4.96,-0.86 13.21,-2.14 20.13,-2.55 3.01,-0.18 5.57,2.15 5.71,5.15 l 0.01,0.23 c 0.14,2.92 -2.05,5.39 -4.96,5.58 z"
   id="path58" />
		<path
   fill="#f7bd00"
   d="m 649.93,248.63 c -4.2,1.53 -10.56,4.02 -17,7.14 -2.53,1.23 -5.59,0.23 -6.86,-2.29 l -0.54,-1.07 c -1.12,-2.21 -0.22,-4.91 2,-6 4.52,-2.21 12.08,-5.76 18.61,-8.09 2.84,-1.01 5.95,0.5 6.92,3.35 l 0.07,0.22 c 0.95,2.75 -0.47,5.74 -3.2,6.74 z"
   id="path60" />
		<path
   fill="#f7bd00"
   d="m 615.54,264.44 c -3.62,2.63 -9.05,6.77 -14.38,11.55 -2.1,1.88 -5.31,1.76 -7.23,-0.31 l -0.82,-0.88 c -1.68,-1.81 -1.57,-4.66 0.27,-6.32 3.73,-3.37 10.02,-8.86 15.66,-12.91 2.45,-1.75 5.85,-1.16 7.58,1.31 l 0.13,0.19 c 1.68,2.4 1.14,5.66 -1.21,7.37 z"
   id="path62" />
		<path
   fill="#f7bd00"
   d="m 588.28,291.17 c -2.73,3.54 -6.79,9.04 -10.56,15.12 -1.49,2.39 -4.6,3.17 -7.02,1.73 l -1.03,-0.62 c -2.13,-1.27 -2.81,-4.03 -1.51,-6.14 2.64,-4.28 7.14,-11.32 11.42,-16.78 1.86,-2.37 5.29,-2.75 7.64,-0.87 l 0.18,0.14 c 2.26,1.83 2.66,5.12 0.88,7.42 z"
   id="path64" />
		<path
   fill="#f7bd00"
   d="m 567.97,321.73 c -1.63,4.17 -3.97,10.58 -5.88,17.48 -0.75,2.72 -3.53,4.34 -6.25,3.64 l -1.17,-0.3 c -2.4,-0.62 -3.83,-3.08 -3.18,-5.46 1.33,-4.85 3.66,-12.87 6.24,-19.31 1.12,-2.8 4.31,-4.13 7.09,-2.98 l 0.21,0.09 c 2.69,1.1 4,4.14 2.94,6.84 z"
   id="path66" />
		<path
   fill="#f7bd00"
   d="m 560.41,355.53 c -0.39,4.45 -0.85,11.27 -0.75,18.43 0.04,2.82 -2.17,5.16 -4.98,5.24 l -1.2,0.04 c -2.47,0.08 -4.54,-1.88 -4.58,-4.36 -0.08,-5.03 -0.09,-13.38 0.57,-20.29 0.29,-3 2.97,-5.17 5.97,-4.85 l 0.23,0.02 c 2.89,0.32 5,2.87 4.74,5.77 z"
   id="path68" />
		<path
   fill="#f7bd00"
   d="m 560.14,393.38 c 0.85,4.39 2.29,11.07 4.36,17.92 0.81,2.7 -0.66,5.55 -3.35,6.41 l -1.15,0.37 c -2.36,0.75 -4.88,-0.56 -5.6,-2.92 -1.47,-4.81 -3.77,-12.84 -5.04,-19.66 -0.55,-2.96 1.43,-5.79 4.4,-6.31 l 0.23,-0.04 c 2.87,-0.49 5.59,1.38 6.15,4.23 z"
   id="path70" />
		<path
   fill="#f7bd00"
   d="m 572.77,429.41 c 2.04,3.98 5.3,9.98 9.21,15.98 1.54,2.36 0.92,5.52 -1.41,7.09 l -1,0.67 c -2.05,1.39 -4.84,0.83 -6.2,-1.24 -2.76,-4.21 -7.22,-11.26 -10.35,-17.46 -1.36,-2.69 -0.25,-5.96 2.46,-7.29 l 0.21,-0.1 c 2.6,-1.27 5.75,-0.24 7.08,2.35 z"
   id="path72" />
		<path
   fill="#f7bd00"
   d="m 592.96,462.16 c 2.04,3.98 5.3,9.98 9.21,15.98 1.54,2.36 0.92,5.52 -1.41,7.09 l -1,0.67 c -2.05,1.39 -4.84,0.83 -6.2,-1.24 -2.76,-4.21 -7.22,-11.26 -10.35,-17.46 -1.36,-2.69 -0.25,-5.96 2.46,-7.29 l 0.21,-0.1 c 2.61,-1.27 5.75,-0.24 7.08,2.35 z"
   id="path74" />
		<path
   fill="#f7bd00"
   d="m 615.87,497.09 c 2.04,3.98 5.3,9.98 9.21,15.98 1.54,2.36 0.92,5.52 -1.41,7.09 l -1,0.67 c -2.05,1.39 -4.84,0.83 -6.2,-1.24 -2.76,-4.21 -7.22,-11.26 -10.35,-17.46 -1.36,-2.69 -0.25,-5.96 2.46,-7.29 l 0.21,-0.1 c 2.6,-1.27 5.75,-0.24 7.08,2.35 z"
   id="path76" />
	</g>
</g><circle
     fill="#007b39"
     cx="683.10999"
     cy="384.51001"
     r="187.50999"
     id="circle82" /><g
     id="g100">
	<path
   fill="#f5b700"
   d="m 646.9,510.66 7.74,-31.15 -59.96,-55.25 c 1.64,3.01 3.37,5.95 5.24,8.75 l -0.09,-0.03 47.07,77.68 11.52,0.46 z"
   id="path84" />
	<path
   fill="#009638"
   d="m 682.83,420.22 112.86,-11.15 c 6.04,-16.67 8.09,-34.78 5.59,-52.81 l -103.52,8.37 z"
   id="path86" />
	<path
   fill="#f5b700"
   d="m 698.61,302.58 v 0 l 0.44,-1.77 c 0,0 0.01,0 0.01,0 l 9.81,-38.63 c -20.74,-3.27 -42.64,-0.7 -63.16,8.7 -9.83,4.5 -18.66,10.28 -26.44,17.03 l 68.31,59.06 z"
   id="path88" />
	<path
   fill="#009638"
   d="m 701.33,351.36 96.93,-9.67 c -1.54,-5.5 -3.52,-10.96 -5.98,-16.32 -13.61,-29.73 -38.76,-50.52 -67.69,-59.53 l -11.88,43.15 z"
   id="path90" />
	<path
   fill="#f5b700"
   d="m 684.03,361.24 -75.61,-62.51 c -11.08,12.72 -19.05,27.73 -23.41,43.81 l 85.33,73.77 z"
   id="path92" />
	<path
   fill="#f5b700"
   d="m 666.9,430.19 -85.07,-70.8 c -1.59,14.38 -0.35,29.2 3.98,43.65 l 72.25,62.73 z"
   id="path94" />
	<path
   fill="#009638"
   d="m 658.42,511.11 v 0 l 78.27,-38.67 -0.04,-0.01 c 0.38,-0.17 0.76,-0.31 1.13,-0.49 0.88,-0.4 1.73,-0.84 2.59,-1.27 l -73.6,9.31 z"
   id="path96" />
	<path
   fill="#009638"
   d="m 670.2,467.27 88.38,-7.77 c 12.53,-9.49 22.66,-21.37 30,-34.69 l -109.29,8.62 z"
   id="path98" />
</g><polygon
     fill="#6ab036"
     points="698.61,302.58 699.06,300.81 699.05,300.81 "
     id="polygon102" /><polygon
     fill="#6ab036"
     points="656.64,481.27 656.56,481.28 656.62,481.34 "
     id="polygon104" /><polygon
     fill="#6ab036"
     points="656.56,481.28 656.24,480.99 656.11,481.34 "
     id="polygon106" /><polygon
     fill="#006d33"
     points="656.56,481.28 656.64,481.27 657.72,477.08 656.24,480.99 "
     id="polygon108" /><path
     fill="#006d33"
     d="m 690.26,365.24 1.34,-0.11 c 0.88,-2.95 1.61,-5.94 2.08,-8.96 z"
     id="path110" /><g
     id="g160">
	<g
   id="g158">
		<path
   fill="#f7bd00"
   d="m 763.96,263.15 c 3.67,2.56 9.18,6.6 14.6,11.27 2.13,1.84 5.34,1.65 7.22,-0.45 l 0.8,-0.9 c 1.65,-1.85 1.48,-4.69 -0.39,-6.31 -3.8,-3.3 -10.19,-8.67 -15.91,-12.6 -2.48,-1.71 -5.87,-1.05 -7.55,1.46 l -0.13,0.19 c -1.62,2.42 -1.02,5.67 1.36,7.34 z"
   id="path112" />
		<path
   fill="#f7bd00"
   d="m 733.09,249.09 c 4.26,1.35 10.73,3.55 17.3,6.4 2.59,1.12 5.59,-0.02 6.76,-2.58 l 0.5,-1.1 c 1.02,-2.25 0.01,-4.91 -2.26,-5.9 -4.61,-2.01 -12.31,-5.23 -18.95,-7.27 -2.88,-0.89 -5.92,0.76 -6.77,3.65 l -0.07,0.22 c -0.83,2.77 0.71,5.7 3.49,6.58 z"
   id="path114" />
		<path
   fill="#f7bd00"
   d="m 697.68,241.31 c 4.47,0.21 11.28,0.69 18.36,1.75 2.79,0.42 5.4,-1.45 5.87,-4.23 l 0.2,-1.19 c 0.41,-2.44 -1.25,-4.75 -3.7,-5.13 -4.97,-0.76 -13.24,-1.9 -20.18,-2.17 -3.01,-0.12 -5.53,2.25 -5.61,5.26 l -0.01,0.23 c -0.08,2.91 2.16,5.35 5.07,5.48 z"
   id="path116" />
		<path
   fill="#f7bd00"
   d="m 789.02,287.06 c 2.8,3.49 6.96,8.9 10.85,14.91 1.53,2.36 4.66,3.08 7.06,1.59 l 1.02,-0.64 c 2.1,-1.31 2.73,-4.08 1.39,-6.17 -2.72,-4.23 -7.35,-11.18 -11.74,-16.55 -1.9,-2.33 -5.35,-2.65 -7.66,-0.72 l -0.18,0.15 c -2.23,1.87 -2.56,5.16 -0.74,7.43 z"
   id="path118" />
		<path
   fill="#f7bd00"
   d="m 810.26,318.39 c 1.73,4.12 4.24,10.48 6.32,17.32 0.82,2.7 3.63,4.25 6.34,3.48 l 1.16,-0.33 c 2.38,-0.68 3.75,-3.17 3.04,-5.54 -1.45,-4.82 -3.99,-12.77 -6.73,-19.15 -1.19,-2.77 -4.41,-4.02 -7.16,-2.8 l -0.21,0.09 c -2.65,1.17 -3.88,4.25 -2.76,6.93 z"
   id="path120" />
		<path
   fill="#f7bd00"
   d="m 819.76,355.36 c 0.51,4.44 1.13,11.25 1.22,18.4 0.03,2.82 2.3,5.1 5.11,5.11 l 1.2,0.01 c 2.48,0.01 4.49,-1.99 4.47,-4.47 -0.04,-5.03 -0.25,-13.38 -1.09,-20.27 -0.36,-2.99 -3.11,-5.09 -6.09,-4.7 l -0.23,0.03 c -2.88,0.4 -4.92,3 -4.59,5.89 z"
   id="path122" />
		<path
   fill="#f7bd00"
   d="m 821.32,392.03 c -0.76,4.41 -2.08,11.11 -4.01,18 -0.76,2.71 0.77,5.54 3.47,6.35 l 1.15,0.35 c 2.37,0.71 4.87,-0.65 5.55,-3.03 1.37,-4.84 3.52,-12.91 4.66,-19.75 0.49,-2.97 -1.55,-5.76 -4.52,-6.22 l -0.23,-0.03 c -2.88,-0.46 -5.57,1.46 -6.07,4.33 z"
   id="path124" />
		<path
   fill="#f7bd00"
   d="m 810.31,424.86 c -1.97,4.02 -5.11,10.08 -8.89,16.16 -1.49,2.39 -0.81,5.53 1.55,7.06 l 1.01,0.65 c 2.08,1.35 4.86,0.74 6.17,-1.36 2.67,-4.26 7,-11.4 10.01,-17.66 1.31,-2.72 0.13,-5.96 -2.6,-7.24 l -0.21,-0.1 c -2.64,-1.21 -5.76,-0.12 -7.04,2.49 z"
   id="path126" />
		<path
   fill="#f7bd00"
   d="m 790.96,457.39 c -3,3.32 -7.69,8.28 -13,13.08 -2.09,1.89 -2.31,5.09 -0.45,7.22 l 0.79,0.91 c 1.63,1.87 4.47,2.05 6.31,0.4 3.74,-3.36 9.87,-9.03 14.48,-14.22 2,-2.25 1.77,-5.7 -0.5,-7.67 l -0.17,-0.15 c -2.21,-1.91 -5.51,-1.72 -7.46,0.43 z"
   id="path128" />
		<path
   fill="#f7bd00"
   d="m 761.51,481.69 c -3.81,2.35 -9.7,5.8 -16.15,8.91 -2.54,1.23 -3.64,4.24 -2.46,6.8 l 0.51,1.09 c 1.04,2.25 3.71,3.22 5.94,2.15 4.54,-2.17 12,-5.9 17.89,-9.59 2.55,-1.6 3.3,-4.97 1.67,-7.51 l -0.12,-0.19 c -1.58,-2.45 -4.81,-3.19 -7.28,-1.66 z"
   id="path130" />
		<path
   fill="#f7bd00"
   d="m 727.28,499.26 c -3.81,2.35 -9.7,5.8 -16.15,8.91 -2.54,1.23 -3.64,4.24 -2.46,6.8 l 0.51,1.09 c 1.04,2.25 3.71,3.22 5.94,2.15 4.54,-2.17 12,-5.9 17.89,-9.59 2.55,-1.6 3.3,-4.97 1.67,-7.51 l -0.12,-0.19 c -1.58,-2.44 -4.8,-3.18 -7.28,-1.66 z"
   id="path132" />
		<path
   fill="#f7bd00"
   d="m 689.6,517.3 c -3.81,2.35 -9.7,5.8 -16.15,8.91 -2.54,1.23 -3.64,4.24 -2.46,6.8 l 0.51,1.09 c 1.04,2.25 3.71,3.22 5.94,2.15 4.54,-2.17 12,-5.9 17.89,-9.59 2.55,-1.6 3.3,-4.97 1.67,-7.51 l -0.12,-0.19 c -1.57,-2.44 -4.8,-3.18 -7.28,-1.66 z"
   id="path134" />
		<path
   fill="#f7bd00"
   d="m 653.75,534.22 c -3.94,2.11 -10.03,5.21 -16.65,7.94 -2.61,1.07 -3.89,4.02 -2.86,6.64 l 0.44,1.12 c 0.9,2.3 3.51,3.43 5.81,2.5 4.66,-1.9 12.33,-5.18 18.43,-8.51 2.64,-1.44 3.58,-4.77 2.11,-7.4 l -0.11,-0.2 c -1.43,-2.53 -4.6,-3.46 -7.17,-2.09 z"
   id="path136" />
		<path
   fill="#f7bd00"
   d="m 683.74,241.13 c -4.46,0.29 -11.27,0.9 -18.32,2.09 -2.78,0.47 -5.43,-1.35 -5.95,-4.12 l -0.22,-1.18 c -0.46,-2.43 1.16,-4.77 3.6,-5.2 4.96,-0.86 13.21,-2.14 20.13,-2.55 3.01,-0.18 5.57,2.15 5.71,5.15 l 0.01,0.23 c 0.14,2.92 -2.05,5.39 -4.96,5.58 z"
   id="path138" />
		<path
   fill="#f7bd00"
   d="m 649.93,248.63 c -4.2,1.53 -10.56,4.02 -17,7.14 -2.53,1.23 -5.59,0.23 -6.86,-2.29 l -0.54,-1.07 c -1.12,-2.21 -0.22,-4.91 2,-6 4.52,-2.21 12.08,-5.76 18.61,-8.09 2.84,-1.01 5.95,0.5 6.92,3.35 l 0.07,0.22 c 0.95,2.75 -0.47,5.74 -3.2,6.74 z"
   id="path140" />
		<path
   fill="#f7bd00"
   d="m 615.54,264.44 c -3.62,2.63 -9.05,6.77 -14.38,11.55 -2.1,1.88 -5.31,1.76 -7.23,-0.31 l -0.82,-0.88 c -1.68,-1.81 -1.57,-4.66 0.27,-6.32 3.73,-3.37 10.02,-8.86 15.66,-12.91 2.45,-1.75 5.85,-1.16 7.58,1.31 l 0.13,0.19 c 1.68,2.4 1.14,5.66 -1.21,7.37 z"
   id="path142" />
		<path
   fill="#f7bd00"
   d="m 588.28,291.17 c -2.73,3.54 -6.79,9.04 -10.56,15.12 -1.49,2.39 -4.6,3.17 -7.02,1.73 l -1.03,-0.62 c -2.13,-1.27 -2.81,-4.03 -1.51,-6.14 2.64,-4.28 7.14,-11.32 11.42,-16.78 1.86,-2.37 5.29,-2.75 7.64,-0.87 l 0.18,0.14 c 2.26,1.83 2.66,5.12 0.88,7.42 z"
   id="path144" />
		<path
   fill="#f7bd00"
   d="m 567.97,321.73 c -1.63,4.17 -3.97,10.58 -5.88,17.48 -0.75,2.72 -3.53,4.34 -6.25,3.64 l -1.17,-0.3 c -2.4,-0.62 -3.83,-3.08 -3.18,-5.46 1.33,-4.85 3.66,-12.87 6.24,-19.31 1.12,-2.8 4.31,-4.13 7.09,-2.98 l 0.21,0.09 c 2.69,1.1 4,4.14 2.94,6.84 z"
   id="path146" />
		<path
   fill="#f7bd00"
   d="m 560.41,355.53 c -0.39,4.45 -0.85,11.27 -0.75,18.43 0.04,2.82 -2.17,5.16 -4.98,5.24 l -1.2,0.04 c -2.47,0.08 -4.54,-1.88 -4.58,-4.36 -0.08,-5.03 -0.09,-13.38 0.57,-20.29 0.29,-3 2.97,-5.17 5.97,-4.85 l 0.23,0.02 c 2.89,0.32 5,2.87 4.74,5.77 z"
   id="path148" />
		<path
   fill="#f7bd00"
   d="m 560.14,393.38 c 0.85,4.39 2.29,11.07 4.36,17.92 0.81,2.7 -0.66,5.55 -3.35,6.41 l -1.15,0.37 c -2.36,0.75 -4.88,-0.56 -5.6,-2.92 -1.47,-4.81 -3.77,-12.84 -5.04,-19.66 -0.55,-2.96 1.43,-5.79 4.4,-6.31 l 0.23,-0.04 c 2.87,-0.49 5.59,1.38 6.15,4.23 z"
   id="path150" />
		<path
   fill="#f7bd00"
   d="m 572.77,429.41 c 2.04,3.98 5.3,9.98 9.21,15.98 1.54,2.36 0.92,5.52 -1.41,7.09 l -1,0.67 c -2.05,1.39 -4.84,0.83 -6.2,-1.24 -2.76,-4.21 -7.22,-11.26 -10.35,-17.46 -1.36,-2.69 -0.25,-5.96 2.46,-7.29 l 0.21,-0.1 c 2.6,-1.27 5.75,-0.24 7.08,2.35 z"
   id="path152" />
		<path
   fill="#f7bd00"
   d="m 592.96,462.16 c 2.04,3.98 5.3,9.98 9.21,15.98 1.54,2.36 0.92,5.52 -1.41,7.09 l -1,0.67 c -2.05,1.39 -4.84,0.83 -6.2,-1.24 -2.76,-4.21 -7.22,-11.26 -10.35,-17.46 -1.36,-2.69 -0.25,-5.96 2.46,-7.29 l 0.21,-0.1 c 2.61,-1.27 5.75,-0.24 7.08,2.35 z"
   id="path154" />
		<path
   fill="#f7bd00"
   d="m 615.87,497.09 c 2.04,3.98 5.3,9.98 9.21,15.98 1.54,2.36 0.92,5.52 -1.41,7.09 l -1,0.67 c -2.05,1.39 -4.84,0.83 -6.2,-1.24 -2.76,-4.21 -7.22,-11.26 -10.35,-17.46 -1.36,-2.69 -0.25,-5.96 2.46,-7.29 l 0.21,-0.1 c 2.6,-1.27 5.75,-0.24 7.08,2.35 z"
   id="path156" />
	</g>
</g></g>
</svg>
