<?xml version="1.0" encoding="utf-8"?>
<!-- Generator: Adobe Illustrator 21.0.0, SVG Export Plug-In . SVG Version: 6.00 Build 0)  -->
<svg version="1.1" id="Capa_1" xmlns="http://www.w3.org/2000/svg" xmlns:xlink="http://www.w3.org/1999/xlink" x="0px" y="0px"
	 viewBox="0 0 1366 768" style="enable-background:new 0 0 1366 768;" xml:space="preserve">
<path fill="#F5B700" d="M406.3,302.3c7.9,0,12.4,4.5,12.4,12.4v7.3c0,7.9-4.5,12.4-12.4,12.4h-48.5v121.5c0,7.9-4.4,12.3-12.3,12.3
	h-12.4c-7.9,0-12.3-4.4-12.3-12.3V334.4h-48.5c-7.9,0-12.3-4.5-12.3-12.4v-7.3c0-7.9,4.4-12.4,12.3-12.4H406.3z"/>
<path fill="#F5B700" d="M588.8,453.9c3.1,8.8-0.8,14.2-9.9,14.2h-15c-7.2,0-11.8-3.4-13.9-10.2l-9.5-28.9h-83.3l-9.5,28.9
	c-2.1,6.8-6.7,10.2-14,10.2h-14.2c-9.1,0-13.1-5.4-9.9-14.2L451,335.5c4.7-13.9,11.7-23.3,20.1-28.4c8.3-5.1,16.9-7,27.6-7
	c11,0,19.4,2,28.1,7c8.7,5.1,15.7,14.7,20.5,28.4L588.8,453.9z M467.8,397.1h62.1l-17.1-51.9c-2.2-6.9-6.9-10.4-14-10.4
	s-11.8,3.5-14,10.4L467.8,397.1z"/>
<path fill="#F5B700" d="M721.7,416.8l30,36.2c6.6,8.2,3.2,15.1-7.2,15.1h-17.2c-5.9,0-10.9-2.4-14.9-7.3l-33.6-42.2
	c-3.9-4.7-5.9-10.1-5.9-16.1v-4c0-6,3.4-9,9.9-9h2.5c27.2,0,38.1-8.9,38.1-27.5c0-18.8-11-27.6-38.1-27.6h-35.5v121.5
	c0,7.9-4.4,12.3-12.3,12.3h-12.4c-7.9,0-12.3-4.4-12.3-12.3V314.7c0-7.9,4.4-12.4,12.3-12.4h62.5c24.2,0,42.5,5.3,55,15.8
	c12.4,10.6,18.6,25.2,18.6,43.8c0,25.4-13.1,44-37.4,53.7L721.7,416.8z"/>
<path fill="#007B39" d="M938.6,453.2c5.7,8.3,2.3,14.9-7.9,14.9H914c-6.6,0-11.6-2.7-14.9-8.1l-23.2-36.2c-7-10.7-15.4-18.4-25.1-22.8
	h-23.7v54.8c0,7.9-4.4,12.3-12.3,12.3h-12.4c-7.9,0-12.3-4.4-12.3-12.3V314.7c0-7.9,4.4-12.4,12.3-12.4h12.4
	c7.9,0,12.3,4.5,12.3,12.4v53.7h24.6c6.5-3.1,11.7-6.9,15.7-11.4c4-4.5,5.8-6.9,8.7-11.6l22.3-35c3.4-5.4,8.3-8.1,14.9-8.1h14.9
	c10.2,0,13.6,6.6,8,14.9l-30.3,44c-7.7,11.2-13.6,18-22.4,23.9c8.7,5,16.3,11.9,22.7,21L938.6,453.2z"/>
<path fill="#007B39" d="M973.3,468.1c-7.4,0-11.7-3.8-12.9-11.3l-1.3-7.4c-1.4-8.4,3-13.2,11.4-13.2h74.3c16.6,0,23.9-3.9,23.9-14.4
	c0-11-9-16.1-26.6-19.2l-30.5-5.4c-17.7-3.1-30.9-8.4-39.6-15.9c-8.8-7.5-13.2-18.6-13.2-33.1c0-29.1,21.5-45.8,60.3-45.8h60
	c7.4,0,11.7,3.8,12.9,11.4l1.3,7.3c1,8.4-3.1,13.3-11.4,13.3h-61.3c-16.6,0-23.9,3.7-23.9,13.1c0,10.2,8.8,14.7,26.5,17.9l31.6,5.7
	c17.7,3.2,29.7,7.7,38.6,15.5c8.9,7.9,13.2,19.1,13.2,34.4c0,30-21.5,47.2-60.3,47.2H973.3z"/>
</svg>
